<?xml version="1.0" encoding="utf-8"?>
<!-- Generator: Adobe Illustrator 19.0.0, SVG Export Plug-In . SVG Version: 6.00 Build 0)  -->
<svg version="1.1" id="logo" xmlns="http://www.w3.org/2000/svg" xmlns:xlink="http://www.w3.org/1999/xlink" x="0px" y="0px"
	 viewBox="0 0 630 280" style="enable-background:new 0 0 630 280;" xml:space="preserve">
<style type="text/css">
	.st0 {
		fill:#202529;
		stroke:#fff;
		stroke-width:2;
		stroke-miterlimit:10;
		stroke-dasharray: 700;
		stroke-dashoffset:0;
		-webkit-animation: dash 3.5s linear forwards;
		-o-animation: dash 3.5s linear forwards;
		-moz-animation: dash 3.5s linear forwards;
		animation: dash 3.5s linear forwards;
	}

	@-webkit-keyframes dash {
		0% {
			stroke-dashoffset: 700;
			fill: #202529;
			stroke: #e53935;
		}
		70% {
			stroke: #e53935;
		}
		85% {
			fill: #202529;
		}
		100% {
			stroke-dashoffset: 0;
			fill: #fff;
			stroke: #fff;
		}
	}
</style>
<path id="XMLID_133_" class="st0" d="M10,10h65c35.9,0,65,29.1,65,65v0c0,35.9-29.1,65-65,65H10v-10h65c30.4,0,55-24.6,55-55v0
	c0-30.4-24.6-55-55-55H10V10z"/>
<path id="XMLID_134_" class="st0" d="M10,30h65c24.9,0,45,20.1,45,45v0c0,24.9-20.1,45-45,45H10v-10h65c19.3,0,35-15.7,35-35v0
	c0-19.3-15.7-35-35-35H10V30z"/>
<path id="XMLID_135_" class="st0" d="M10,50h65c13.8,0,25,11.2,25,25v0c0,13.8-11.2,25-25,25H10V90h65c8.3,0,15-6.7,15-15v0
	c0-8.3-6.7-15-15-15H10V50z"/>
<polygon id="XMLID_136_" class="st0" points="150,140.5 190,10.5 200,10.5 160,140.5 "/>
<polygon id="XMLID_137_" class="st0" points="170,140.5 210,10.5 220,10.5 180,140.5 "/>
<polygon id="XMLID_138_" class="st0" points="190,140.5 230,10.5 240,10.5 200,140.5 "/>
<polygon id="XMLID_139_" class="st0" points="243.5,16.4 320,270.5 310,270.5 238.5,32.3 "/>
<polygon id="XMLID_140_" class="st0" points="233.5,47.9 300,270.5 290,270.5 228.5,64.3 "/>
<polygon id="XMLID_141_" class="st0" points="223.5,80.4 280,270.5 270,270.5 218.5,96.8 "/>
<polygon id="XMLID_142_" class="st0" points="298.5,180.9 310,140.5 320,140.5 303.5,196.3 "/>
<polygon id="XMLID_143_" class="st0" points="308.5,213.4 330,140.5 340,140.5 313.5,228.8 "/>
<polygon id="XMLID_144_" class="st0" points="318.5,245.9 350,140.5 360,140.5 323.5,261.3 "/>
<rect id="XMLID_145_" x="379.5" y="140.5" class="st0" width="10" height="130"/>
<rect id="XMLID_146_" x="399.5" y="140.5" class="st0" width="10" height="130"/>
<rect id="XMLID_147_" x="429.5" y="140.5" class="st0" width="10" height="130"/>
<rect id="XMLID_148_" x="449.5" y="140.5" class="st0" width="10" height="130"/>
<path id="XMLID_17_" class="st0" d="M380,115L380,115c0,8.3,6.7,15,15,15l0,0c8.3,0,15-6.7,15-15v0c0-8.3-6.7-15-15-15l0,0
	C386.7,100,380,106.7,380,115z M395,120L395,120c-2.8,0-5-2.2-5-5v0c0-2.8,2.2-5,5-5l0,0c2.8,0,5,2.2,5,5v0
	C400,117.8,397.8,120,395,120z"/>
<path id="XMLID_33_" class="st0" d="M430,115L430,115c0,8.3,6.7,15,15,15l0,0c8.3,0,15-6.7,15-15v0c0-8.3-6.7-15-15-15l0,0
	C436.7,100,430,106.7,430,115z M445,120L445,120c-2.8,0-5-2.2-5-5v0c0-2.8,2.2-5,5-5l0,0c2.8,0,5,2.2,5,5v0
	C450,117.8,447.8,120,445,120z"/>
<path id="XMLID_9_" class="st0" d="M480,140h65c35.9,0,65,29.1,65,65v0c0,35.9-29.1,65-65,65h-65v-10h65c30.4,0,55-24.6,55-55v0
	c0-30.4-24.6-55-55-55h-65V140z"/>
<path id="XMLID_8_" class="st0" d="M480,160h65c24.9,0,45,20.1,45,45v0c0,24.9-20.1,45-45,45h-65v-10h65c19.3,0,35-15.7,35-35v0
	c0-19.3-15.7-35-35-35h-65V160z"/>
<path id="XMLID_6_" class="st0" d="M480,180h65c13.8,0,25,11.2,25,25v0c0,13.8-11.2,25-25,25h-65v-10h65c8.3,0,15-6.7,15-15v0
	c0-8.3-6.7-15-15-15h-65V180z"/>
</svg>
