<?xml version="1.0" encoding="utf-8"?>
<!-- Generator: Adobe Illustrator 19.0.0, SVG Export Plug-In . SVG Version: 6.00 Build 0)  -->
<svg version="1.1" id="logo" xmlns="http://www.w3.org/2000/svg" xmlns:xlink="http://www.w3.org/1999/xlink" x="0px" y="0px"
	 viewBox="0 0 490 280" style="enable-background:new 0 0 490 280;" xml:space="preserve">
<defs>
<style type="text/css">
	.st0 {
		fill:#212121;
		stroke:#fff;
		stroke-width:2;
		stroke-miterlimit:10;
	}

	.st0 {
		stroke-dasharray: 700;
		stroke-dashoffset:0;
		-webkit-animation: dash 3s linear forwards;
		-o-animation: dash 3s linear forwards;
		-moz-animation: dash 3s linear forwards;
		animation: dash 3s linear forwards;
	}

	@-webkit-keyframes dash {
		0% {
			stroke-dashoffset: 700;
			fill: #212121;
		}
		75% {
			fill: #212121;
		}
		100% {
			stroke-dashoffset: 0;
			fill: #fff;
		}
	}

	<!-- #logo:hover .st0 {
		fill: #fff;
		transition: fill .8s ease;
	} -->
</style>
</defs>
<g id="XMLID_28_">
	<path id="XMLID_1_" class="st0 hello" d="M10,10h65c35.9,0,65,29.1,65,65v0c0,35.9-29.1,65-65,65H10v-10h65c30.4,0,55-24.6,55-55v0
		c0-30.4-24.6-55-55-55H10V10z"/>
	<path id="XMLID_2_" class="st0 hello" d="M10,30h65c24.9,0,45,20.1,45,45v0c0,24.9-20.1,45-45,45H10v-10h65c19.3,0,35-15.7,35-35v0
		c0-19.3-15.7-35-35-35H10V30z"/>
	<path id="XMLID_3_" class="st0 hello" d="M10,50h65c13.8,0,25,11.2,25,25v0c0,13.8-11.2,25-25,25H10V90h65c8.3,0,15-6.7,15-15v0
		c0-8.3-6.7-15-15-15H10V50z"/>
	<polygon id="XMLID_16_" class="st0 hi" points="312.5,262.9 350,142 340,142 307.5,247.1 	"/>
	<polygon id="XMLID_19_" class="st0 hi" points="302.5,230.4 330,142 320,142 297.5,214.6 	"/>
	<polygon id="XMLID_21_" class="st0 hi" points="292.5,197.9 310,142 300,142 287.5,182.1 	"/>
	<polygon id="XMLID_20_" class="st0 hi" points="160,142 200,12 210,12 170,142 	"/>
	<polygon id="XMLID_22_" class="st0 hi" points="140,142 180,12 190,12 150,142 	"/>
	<polygon id="XMLID_18_" class="st0 hi" points="180,142 220,12 230,12 190,142 	"/>
	<g id="XMLID_4_">
		<polygon id="XMLID_5_" class="st0 hi" points="270,141 232.5,18.6 227.5,34.6 260,141.1 300,272 310,272 		"/>
		<polygon id="XMLID_13_" class="st0 hi" points="222.5,50.6 217.5,66.9 240,141 280,272 290,272 250,141 		"/>
		<polygon id="XMLID_14_" class="st0 hi" points="212.5,83.1 207.5,99.4 220,141 260,272 270,272 230,141 		"/>
	</g>
	<rect id="XMLID_24_" x="358" y="142" class="st0 hello" width="10" height="130"/>
	<rect id="XMLID_25_" x="378" y="142" class="st0 hello" width="10" height="130"/>
	<rect id="XMLID_26_" x="393" y="142" class="st0 hello" width="85" height="10"/>
	<rect id="XMLID_27_" x="393" y="162" class="st0 hello" width="85" height="10"/>
	<rect id="XMLID_29_" x="393" y="192" class="st0 hello" width="60" height="10"/>
	<rect id="XMLID_30_" x="393" y="212" class="st0 hello" width="60" height="10"/>
	<rect id="XMLID_31_" x="393" y="262" class="st0 hello" width="85" height="10"/>
	<rect id="XMLID_32_" x="393" y="242" class="st0 hello" width="85" height="10"/>
</g>
</svg>
