<?xml version="1.0" encoding="utf-8"?>
<!-- Generator: Adobe Illustrator 19.0.0, SVG Export Plug-In . SVG Version: 6.00 Build 0)  -->
<svg version="1.1" id="Layer_1" xmlns="http://www.w3.org/2000/svg" xmlns:xlink="http://www.w3.org/1999/xlink" x="0px" y="0px"
	 viewBox="0 0 590 280" style="enable-background:new 0 0 590 280;" xml:space="preserve">
<style type="text/css">
	.st0 {
		fill:#212121;
		stroke:#fff;
		stroke-width:2;
		stroke-miterlimit:10;
	}

	.st0 {
		stroke-dasharray: 700;
		stroke-dashoffset:0;
		-webkit-animation: dash 3.5s linear forwards;
		-o-animation: dash 3.5s linear forwards;
		-moz-animation: dash 3.5s linear forwards;
		animation: dash 3.5s linear forwards;
	}

	@-webkit-keyframes dash {
		0% {
			stroke-dashoffset: 700;
			fill: #212121;
			stroke: #e91e63
		}
		70% {
			stroke: #e91e63
		}
		85% {
			fill: #212121;
		}
		100% {
			stroke-dashoffset: 0;
			fill: #fff;
			stroke: #fff;
		}
	}
</style>
<path id="XMLID_1_" class="st0" d="M10,8h65c35.9,0,65,29.1,65,65v0c0,35.9-29.1,65-65,65H10v-10h65c30.4,0,55-24.6,55-55v0
	c0-30.4-24.6-55-55-55H10V8z"/>
<path id="XMLID_2_" class="st0" d="M10,28h65c24.9,0,45,20.1,45,45v0c0,24.9-20.1,45-45,45H10v-10h65c19.3,0,35-15.7,35-35v0
	c0-19.3-15.7-35-35-35H10V28z"/>
<path id="XMLID_3_" class="st0" d="M10,48h65c13.8,0,25,11.2,25,25v0c0,13.8-11.2,25-25,25H10V88h65c8.3,0,15-6.7,15-15v0
	c0-8.3-6.7-15-15-15H10V48z"/>
<polygon id="XMLID_16_" class="st0" points="312.5,261.6 350,141.5 340,141.5 307.5,246.3 "/>
<polygon id="XMLID_19_" class="st0" points="302.5,229.1 330,141.5 320,141.5 297.5,213.8 "/>
<polygon id="XMLID_21_" class="st0" points="292.5,196.6 310,141.5 300,141.5 287.5,181.3 "/>
<polygon id="XMLID_22_" class="st0" points="140,141.5 180,11.5 190,11.5 150,141.5 "/>
<polygon id="XMLID_20_" class="st0" points="160,141.5 200,11.5 210,11.5 170,141.5 "/>
<polygon id="XMLID_18_" class="st0" points="180,141.5 220,11.5 230,11.5 190,141.5 "/>
<g id="XMLID_4_">
	<polygon id="XMLID_5_" class="st0" points="270,139.8 232.5,17 227.5,32.8 260,140 300,271.5 310,271.5 	"/>
	<polygon id="XMLID_13_" class="st0" points="222.5,48.6 217.5,64.9 240,139.8 280,271.5 290,271.5 250,139.8 	"/>
	<polygon id="XMLID_14_" class="st0" points="212.5,81.1 207.5,97.4 220,139.8 260,271.5 270,271.5 230,139.8 	"/>
</g>
<rect id="XMLID_24_" x="363.5" y="141.5" class="st0" width="10" height="130"/>
<rect id="XMLID_25_" x="383.5" y="141.5" class="st0" width="10" height="130"/>
<path id="XMLID_28_" class="st0" d="M455,140h65c35.9,0,65,29.1,65,65v0c0,35.9-29.1,65-65,65h-65v-10h65c30.4,0,55-24.6,55-55v0
	c0-30.4-24.6-55-55-55h-65V140z"/>
<path id="XMLID_27_" class="st0" d="M455,160h65c24.9,0,45,20.1,45,45v0c0,24.9-20.1,45-45,45h-65v-10h65c19.3,0,35-15.7,35-35v0
	c0-19.3-15.7-35-35-35h-65V160z"/>
<path id="XMLID_26_" class="st0" d="M455,180h65c13.8,0,25,11.2,25,25v0c0,13.8-11.2,25-25,25h-65v-10h65c8.3,0,15-6.7,15-15v0
	c0-8.3-6.7-15-15-15h-65V180z"/>
<rect id="XMLID_30_" x="408.5" y="141.5" class="st0" width="10" height="130"/>
<rect id="XMLID_29_" x="428.5" y="141.5" class="st0" width="10" height="130"/>
<path id="XMLID_93_" class="st0" d="M380,100c-8.3,0-15,6.7-15,15c0,8.3,6.7,15,15,15s15-6.7,15-15C395,106.7,388.3,100,380,100z
	 M380,120c-2.8,0-5-2.2-5-5s2.2-5,5-5s5,2.2,5,5S382.8,120,380,120z"/>
<path id="XMLID_31_" class="st0" d="M425,100c-8.3,0-15,6.7-15,15c0,8.3,6.7,15,15,15s15-6.7,15-15C440,106.7,433.3,100,425,100z
	 M425,120c-2.8,0-5-2.2-5-5s2.2-5,5-5s5,2.2,5,5S427.8,120,425,120z"/>
</svg>
